<svg xmlns="http://www.w3.org/2000/svg" xmlns:xlink="http://www.w3.org/1999/xlink" width="100" height="50" viewBox="0 0 100 50"><defs><linearGradient id="b" x1="100%" x2="0%" y1="50%" y2="50%"><stop offset="0%" stop-color="#1090EF"/><stop offset="33.333%" stop-color="#647553"/><stop offset="66.667%" stop-color="#876D4A"/><stop offset="100%" stop-color="#CC8B25"/></linearGradient><path id="a" d="M110 0v16.327c0 4.113-.542 8.708-4.062 12.244-2.31 2.324-17.1 15.143-19.293 17.347C82.9 49.682 80.704 50 74.55 50H10V32.751c0-4.396.594-8.858 4.062-12.343 3.204-3.22 17.507-14.532 19.293-16.326C37.145.272 39.189 0 45.644 0H110z"/></defs><g fill="none" fill-rule="evenodd" transform="translate(-10)"><use fill="#161F27" fill-opacity=".4" xlink:href="#a"/><path stroke="url(#b)" d="M109.5.5H45.644c-6.908 0-8.501.484-11.935 3.934-.45.452-1.615 1.449-3.653 3.137-1.175.973-6.053 4.982-6.256 5.149l-.264.218c-4.966 4.093-7.862 6.558-9.12 7.823-2.91 2.925-3.916 6.555-3.916 11.99V49.5h64.05c6.614 0 8.36-.538 11.74-3.934.927-.931 3.11-2.884 9.686-8.704l.012-.01c6.212-5.499 8.646-7.679 9.596-8.633 2.914-2.929 3.916-6.593 3.916-11.892V.5z"/></g></svg>